<svg xmlns="http://www.w3.org/2000/svg" xmlns:xlink="http://www.w3.org/1999/xlink" viewBox="0 0 16 16" data-v-90469f71=""><g fill="none"><path d="M3.5 5a.5.5 0 0 0 0 1h7a.5.5 0 0 0 0-1h-7zm0 2a.5.5 0 0 0-.5.5v2a.5.5 0 0 0 .5.5h2a.5.5 0 0 0 .5-.5v-2a.5.5 0 0 0-.5-.5h-2zM4 9V8h1v1H4zm3.5-2a.5.5 0 0 0 0 1h3a.5.5 0 0 0 0-1h-3zm0 2a.5.5 0 0 0 0 1h3a.5.5 0 0 0 0-1h-3zM1 4a2 2 0 0 1 2-2h8a2 2 0 0 1 2 2a2 2 0 0 1 2 2v4.5a2.5 2.5 0 0 1-2.5 2.5h-9A2.5 2.5 0 0 1 1 10.5V4zm11.5 6.5a.5.5 0 0 1-.5-.5V4a1 1 0 0 0-1-1H3a1 1 0 0 0-1 1v6.5A1.5 1.5 0 0 0 3.5 12h9a1.5 1.5 0 0 0 1.5-1.5V6a1 1 0 0 0-1-1v5a.5.5 0 0 1-.5.5z" fill="currentColor"></path></g></svg>